<svg xmlns="http://www.w3.org/2000/svg" width="1055" height="324" fill="none" viewBox="0 0 1055 324">
  <path fill="#E63950" d="M95.53 107.334c-4.279-3.293-5.309-9.76-2.3-14.445l22.252-34.644c3.008-4.684 8.917-5.811 13.196-2.518s5.309 9.76 2.301 14.444l-22.252 34.646c-3.009 4.684-8.917 5.81-13.197 2.517z"/>
  <path fill="#E8566F" d="M98.906 99.782c-.486 0-.937-.152-1.33-.456-1.04-.797-1.295-2.38-.567-3.518.706-1.101 2.22-1.405 3.226-.62.509.392.844.974.948 1.632a2.728 2.728 0 01-.381 1.886c-.44.684-1.145 1.076-1.896 1.076zm5.318-8.277c-.474 0-.936-.165-1.329-.456a2.545 2.545 0 01-.948-1.645 2.751 2.751 0 01.381-1.886l16.939-26.363c.705-1.101 2.209-1.392 3.215-.608.508.38.844.962.948 1.633a2.624 2.624 0 01-.382 1.886l-16.927 26.363c-.44.67-1.145 1.076-1.897 1.076z"/>
  <path fill="#D10028" d="M128.678 55.728a9.267 9.267 0 00-2.296-1.299c.982 3.054.647 6.565-1.184 9.415l-22.252 34.644c-2.499 3.89-6.996 5.326-10.9 3.818.632 1.964 1.81 3.739 3.484 5.029 4.28 3.293 10.188 2.166 13.197-2.518l22.252-34.644c3.008-4.684 1.978-11.152-2.301-14.445z"/>
  <path fill="#808285" d="M95.53 107.334c-1.954-1.504-3.23-3.669-3.754-6.025L67.554 139.02H82.8l19.179-29.857c-2.203.257-4.495-.326-6.45-1.829z"/>
  <path fill="#58595B" d="M95.53 107.334a9.747 9.747 0 01-1.386-1.301l-16.433 25.583c-.433.675-1.138 1.076-1.891 1.076h-4.202l-4.064 6.328H82.8l19.179-29.857c-2.203.257-4.495-.326-6.45-1.829z"/>
  <g>
    <path fill="#E63950" d="M200.469 107.334c4.28-3.293 5.31-9.76 2.301-14.445l-22.252-34.644c-3.008-4.684-8.917-5.811-13.196-2.518s-5.309 9.76-2.301 14.444l22.252 34.644c3.009 4.686 8.917 5.812 13.196 2.519z"/>
    <path fill="#D10028" d="M202.77 92.89l-22.252-34.643c-1.513-2.357-3.762-3.811-6.167-4.258l16.857 26.244c3.008 4.684 1.978 11.151-2.301 14.445-2.126 1.636-4.654 2.179-7.029 1.739l5.395 8.398c3.009 4.684 8.917 5.812 13.196 2.519 4.28-3.293 5.31-9.76 2.301-14.445z"/>
    <path fill="#B7022D" d="M202.77 92.89l-22.252-34.645c-1.047-1.63-2.445-2.828-4.004-3.561l20.475 31.876c3.009 4.684 1.978 11.151-2.301 14.444-2.79 2.148-6.272 2.415-9.192 1.043l1.777 2.767c3.009 4.684 8.917 5.812 13.196 2.519 4.28-3.292 5.31-9.76 2.301-14.444z"/>
    <path fill="#808285" d="M200.469 107.334c1.954-1.504 3.231-3.669 3.755-6.025l24.222 37.711h-15.247l-19.179-29.857c2.202.257 4.495-.326 6.449-1.829z"/>
    <path fill="#58595B" d="M204.224 101.309a11.01 11.01 0 01-.563 1.796l16.443 25.599c1.077 1.677-.019 3.987-1.892 3.987h-9.079l4.064 6.328h15.248l-24.221-37.71z"/>
  </g>
  <g>
    <path fill="#808285" d="M253.869 139.02H42.131c-6.693 0-11.664 6.788-10.207 13.94l22.058 108.245c1.066 5.233 5.308 8.955 10.207 8.955h167.622c4.898 0 9.14-3.722 10.207-8.955l22.058-108.245c1.457-7.152-3.514-13.94-10.207-13.94zm-23.367 117.487H65.498L44.34 152.674h207.32l-21.158 103.833z"/>
    <path fill="#58595B" d="M65.504 256.507L44.34 152.674h207.32l.662-3.247c.322-1.58-.777-3.082-2.257-3.082H41.444c-1.48 0-2.58 1.502-2.258 3.084l21.422 105.098c.236 1.157 1.174 1.98 2.257 1.98h2.639z"/>
    <path fill="#58595B" d="M257.785 139.847c.766 2.062.994 4.403.509 6.783l-23.076 113.241c-.471 2.315-2.347 3.96-4.514 3.96H58.408c-1.376 0-2.7-.294-3.915-.832 1.572 4.269 5.38 7.16 9.696 7.16h167.622c4.899 0 9.14-3.722 10.207-8.956l22.058-108.245c1.153-5.661-1.722-11.093-6.291-13.111z"/>
    <path fill="#808285" d="M78.085 152.674h12.474v103.833H78.085V152.674z"/>
    <path fill="#58595B" d="M84.777 152.674v97.505h-6.692v6.328h12.474V152.674h-5.782z"/>
    <path fill="#808285" d="M120.537 152.674h12.473v103.833h-12.473V152.674z"/>
    <path fill="#58595B" d="M127.229 152.674v97.505h-6.691v6.328h12.472V152.674h-5.781z"/>
    <path fill="#808285" d="M162.99 152.674h12.473v103.833H162.99V152.674z"/>
    <path fill="#58595B" d="M169.681 152.674v97.505h-6.691v6.328h12.472V152.674h-5.781z"/>
    <path fill="#808285" d="M205.441 152.674h12.474v103.833h-12.474V152.674z"/>
    <path fill="#58595B" d="M212.134 152.674v97.505h-6.693v6.328h12.474V152.674h-5.781z"/>
    <g>
      <path fill="#808285" d="M246.511 177.942H49.489l2.782 13.653h191.458l2.782-13.653z"/>
      <path fill="#58595B" d="M239.441 177.942l-1.493 7.325H50.981l1.29 6.328h191.458l2.782-13.653h-7.07z"/>
      <path fill="#808285" d="M238.433 217.584H57.566l2.783 13.653h175.302l2.782-13.653z"/>
      <path fill="#58595B" d="M231.362 217.584l-1.493 7.325H59.059l1.29 6.328h175.302l2.782-13.653h-7.071z"/>
    </g>
  </g>
  <g>
    <path fill="#FFA91A" d="M147.003 236.936c26.332 0 47.678-23.365 47.678-52.188 0-28.822-21.346-52.188-47.678-52.188-26.332 0-47.678 23.366-47.678 52.188 0 28.823 21.346 52.188 47.678 52.188z"/>
    <path fill="#F79219" d="M174.43 142.071c5.467 8.493 8.689 18.842 8.689 30.021 0 28.822-21.346 52.188-47.678 52.188-10.213 0-19.668-3.526-27.426-9.511 8.629 13.403 22.869 22.167 38.988 22.167 26.333 0 47.678-23.366 47.678-52.188 0-17.644-8.007-33.231-20.251-42.677z"/>
    <path fill="#fff" d="M152.106 214.274h-9.018c-7.491 0-13.586-6.671-13.586-14.87 0-1.397 1.036-2.531 2.313-2.531 1.276 0 2.312 1.134 2.312 2.531 0 5.408 4.021 9.808 8.961 9.808h9.018c4.94 0 8.96-4.4 8.96-9.808v-4.936c0-5.408-4.02-9.807-8.96-9.807h-9.018c-7.491 0-13.586-6.671-13.586-14.871s6.095-14.87 13.586-14.87h9.018c7.491 0 13.585 6.671 13.585 14.87 0 1.397-1.036 2.531-2.313 2.531-1.276 0-2.312-1.134-2.312-2.531 0-5.408-4.02-9.807-8.96-9.807h-9.018c-4.94 0-8.961 4.399-8.961 9.807s4.021 9.809 8.961 9.809h9.018c7.491 0 13.585 6.671 13.585 14.869v4.936c0 8.199-6.094 14.87-13.585 14.87z"/>
    <path fill="#fff" d="M147.596 219.21c-1.276 0-2.312-1.134-2.312-2.531v-64.162c0-1.398 1.036-2.532 2.312-2.532 1.277 0 2.313 1.134 2.313 2.532v64.162c0 1.397-1.035 2.531-2.313 2.531z"/>
    <g>
      <path fill="#E63950" d="M102.706 281.247H191.3c2.555 0 4.625-2.267 4.625-5.062v-23.993c0-2.796-2.07-5.062-4.625-5.062h-88.594c-2.554 0-4.625 2.266-4.625 5.062v23.993c0 2.795 2.071 5.062 4.625 5.062z"/>
    </g>
    <g>
      <path fill="#D10028" d="M191.299 247.13h-1.156v22.727c0 2.795-2.071 5.062-4.625 5.062H98.081v1.266c0 2.795 2.071 5.062 4.625 5.062H191.3c2.555 0 4.625-2.267 4.625-5.062v-23.993c-.001-2.796-2.071-5.062-4.626-5.062z"/>
    </g>
    <g>
      <path fill="#FFA91A" d="M185.815 263.583l-32.754-2.133c-2.951-.192-5.392 2.481-5.216 5.71l1.948 35.851c.252 4.649 5.403 6.79 8.411 3.497l6.202-6.789 12.713 13.916c2.672 2.924 7.005 2.924 9.675 0l8.727-9.552c2.672-2.925 2.672-7.667 0-10.591l-12.713-13.915 6.202-6.789c3.008-3.291 1.052-8.928-3.195-9.205z"/>
      <path fill="#F79219" d="M182.537 308.976l8.726-9.552c2.672-2.925 2.672-7.667 0-10.591l4.258 4.66c2.672 2.925 2.672 7.668 0 10.591l-8.727 9.552c-2.672 2.925-7.003 2.925-9.675 0l-4.257-4.66c2.672 2.925 7.003 2.925 9.675 0zM182.809 279.578l-4.257-4.66 6.202-6.789c1.185-1.297 1.599-2.958 1.407-4.511 4.006.55 5.775 5.969 2.85 9.172l-6.202 6.788zM153.947 301.849l6.202-6.789 4.257 4.66-6.202 6.789c-2.925 3.202-7.878 1.264-8.379-3.12 1.421.21 2.938-.243 4.122-1.54z"/>
    </g>
  </g>
  <path fill="#656565" d="M572.6 189l-31 70h-7.3l-31-70h8l26.8 60.8 27-60.8h7.5zm50.652 64v6h-41.1v-56.5h39.9v6h-32.7v18.9h29.2v5.9h-29.2V253h33.9zm64.241-50.5V259h-6l-35.5-44.1V259h-7.2v-56.5h6l35.5 44.1v-44.1h7.2zm21.027 0h23.7c6.266 0 11.733 1.2 16.4 3.6 4.666 2.333 8.233 5.633 10.7 9.9 2.533 4.2 3.8 9.1 3.8 14.7s-1.267 10.533-3.8 14.8c-2.467 4.267-6.034 7.6-10.7 10-4.667 2.333-10.134 3.5-16.4 3.5h-23.7v-56.5zm23.4 50.5c7.533 0 13.4-2 17.6-6 4.266-4.067 6.4-9.5 6.4-16.3 0-6.733-2.134-12.1-6.4-16.1-4.2-4.067-10.067-6.1-17.6-6.1h-16.2V253h16.2zm80.745-8.6h-31.7l-6.6 14.6h-7.2l26.1-56.5h7.1l26.1 56.5h-7.2l-6.6-14.6zm-2.6-5.8l-13.2-29.3-13.3 29.3h26.5zm42.765 21c-4.333 0-8.5-.633-12.5-1.9-3.933-1.333-7.033-3.067-9.3-5.2l3-5.6c2.134 1.933 4.9 3.533 8.3 4.8a32.49 32.49 0 0010.7 1.8c4.934 0 8.567-.867 10.9-2.6 2.4-1.733 3.6-3.967 3.6-6.7 0-2.133-.666-3.833-2-5.1-1.333-1.333-3-2.333-5-3-2-.667-4.7-1.4-8.1-2.2-4.266-1-7.7-2-10.3-3a17.25 17.25 0 01-6.7-4.6c-1.8-2.133-2.7-4.967-2.7-8.5 0-4.733 1.9-8.567 5.7-11.5 3.8-3 9.1-4.5 15.9-4.5 3.4 0 6.7.433 9.9 1.3 3.267.867 6.034 2.1 8.3 3.7l-2.6 5.8c-4.333-3.067-9.6-4.6-15.8-4.6-4.733 0-8.3.9-10.7 2.7-2.4 1.733-3.6 4-3.6 6.8 0 2.133.667 3.867 2 5.2 1.334 1.267 3 2.233 5 2.9 2.067.667 4.834 1.4 8.3 2.2 4.2 1 7.6 2 10.2 3 2.6.933 4.8 2.433 6.6 4.5 1.867 2.067 2.8 4.833 2.8 8.3 0 4.8-1.933 8.667-5.8 11.6-3.8 2.933-9.166 4.4-16.1 4.4z"/>
  <path fill="#FF8A00" d="M316.35 260.2c-7.9 0-15.55-1.2-22.95-3.6-7.3-2.5-13.05-5.7-17.25-9.6l5.55-11.7c4 3.6 9.1 6.55 15.3 8.85 6.3 2.2 12.75 3.3 19.35 3.3 8.7 0 15.2-1.45 19.5-4.35 4.3-3 6.45-6.95 6.45-11.85 0-3.6-1.2-6.5-3.6-8.7-2.3-2.3-5.2-4.05-8.7-5.25-3.4-1.2-8.25-2.55-14.55-4.05-7.9-1.9-14.3-3.8-19.2-5.7-4.8-1.9-8.95-4.8-12.45-8.7-3.4-4-5.1-9.35-5.1-16.05 0-5.6 1.45-10.65 4.35-15.15 3-4.5 7.5-8.1 13.5-10.8 6-2.7 13.45-4.05 22.35-4.05 6.2 0 12.3.8 18.3 2.4 6 1.6 11.15 3.9 15.45 6.9l-4.95 12c-4.4-2.8-9.1-4.9-14.1-6.3-5-1.5-9.9-2.25-14.7-2.25-8.5 0-14.9 1.55-19.2 4.65-4.2 3.1-6.3 7.1-6.3 12 0 3.6 1.2 6.55 3.6 8.85 2.4 2.2 5.35 3.95 8.85 5.25 3.6 1.2 8.45 2.5 14.55 3.9 7.9 1.9 14.25 3.8 19.05 5.7 4.8 1.9 8.9 4.8 12.3 8.7 3.5 3.9 5.25 9.15 5.25 15.75 0 5.5-1.5 10.55-4.5 15.15-3 4.5-7.55 8.1-13.65 10.8-6.1 2.6-13.6 3.9-22.5 3.9zM378.914 154h15v105h-15V154zm77.036 106.2c-7.9 0-15.55-1.2-22.95-3.6-7.3-2.5-13.05-5.7-17.25-9.6l5.55-11.7c4 3.6 9.1 6.55 15.3 8.85 6.3 2.2 12.75 3.3 19.35 3.3 8.7 0 15.2-1.45 19.5-4.35 4.3-3 6.45-6.95 6.45-11.85 0-3.6-1.2-6.5-3.6-8.7-2.3-2.3-5.2-4.05-8.7-5.25-3.4-1.2-8.25-2.55-14.55-4.05-7.9-1.9-14.3-3.8-19.2-5.7-4.8-1.9-8.95-4.8-12.45-8.7-3.4-4-5.1-9.35-5.1-16.05 0-5.6 1.45-10.65 4.35-15.15 3-4.5 7.5-8.1 13.5-10.8 6-2.7 13.45-4.05 22.35-4.05 6.2 0 12.3.8 18.3 2.4 6 1.6 11.15 3.9 15.45 6.9l-4.95 12c-4.4-2.8-9.1-4.9-14.1-6.3-5-1.5-9.9-2.25-14.7-2.25-8.5 0-14.9 1.55-19.2 4.65-4.2 3.1-6.3 7.1-6.3 12 0 3.6 1.2 6.55 3.6 8.85 2.4 2.2 5.35 3.95 8.85 5.25 3.6 1.2 8.45 2.5 14.55 3.9 7.9 1.9 14.25 3.8 19.05 5.7 4.8 1.9 8.9 4.8 12.3 8.7 3.5 3.9 5.25 9.15 5.25 15.75 0 5.5-1.5 10.55-4.5 15.15-3 4.5-7.55 8.1-13.65 10.8-6.1 2.6-13.6 3.9-22.5 3.9z"/>
</svg>
