<svg xmlns="http://www.w3.org/2000/svg" width="937" height="263" fill="none" viewBox="0 0 937 263">
  <path fill="#E63950" d="M64.53 54.334c-4.279-3.293-5.309-9.76-2.3-14.445L84.482 5.245C87.49.561 93.399-.566 97.678 2.727s5.309 9.76 2.3 14.444L77.728 51.816c-3.009 4.685-8.917 5.811-13.197 2.518z"/>
  <path fill="#E8566F" d="M67.906 46.782c-.486 0-.937-.152-1.33-.456-1.04-.797-1.295-2.38-.567-3.518.706-1.101 2.22-1.405 3.226-.62.509.392.844.974.948 1.632a2.729 2.729 0 01-.381 1.886c-.44.684-1.145 1.076-1.896 1.076zm5.318-8.277a2.24 2.24 0 01-1.33-.456 2.546 2.546 0 01-.948-1.645 2.757 2.757 0 01.382-1.886l16.94-26.363c.704-1.101 2.208-1.392 3.213-.607.51.38.845.961.949 1.632a2.624 2.624 0 01-.382 1.886L75.121 37.429c-.44.67-1.145 1.076-1.897 1.076z"/>
  <path fill="#D10028" d="M97.678 2.728a9.26 9.26 0 00-2.296-1.299c.982 3.054.647 6.565-1.184 9.415L71.946 45.489c-2.5 3.89-6.996 5.326-10.9 3.818.632 1.964 1.81 3.74 3.485 5.03 4.279 3.292 10.187 2.165 13.196-2.52l22.252-34.643c3.008-4.684 1.978-11.152-2.301-14.445z"/>
  <path fill="#808285" d="M64.53 54.334c-1.954-1.504-3.23-3.67-3.754-6.025L36.554 86.02H51.8L70.98 56.163c-2.203.257-4.495-.326-6.45-1.83z"/>
  <path fill="#58595B" d="M64.53 54.334a9.73 9.73 0 01-1.386-1.301L46.712 78.616c-.434.675-1.14 1.076-1.892 1.076h-4.202l-4.064 6.328H51.8L70.98 56.163c-2.203.257-4.495-.326-6.45-1.83z"/>
  <g>
    <path fill="#E63950" d="M169.469 54.334c4.28-3.293 5.31-9.76 2.301-14.445L149.518 5.245c-3.008-4.684-8.917-5.811-13.196-2.518s-5.309 9.76-2.301 14.444l22.252 34.644c3.009 4.686 8.917 5.812 13.196 2.519z"/>
    <path fill="#D10028" d="M171.77 39.89L149.518 5.246c-1.513-2.357-3.762-3.811-6.167-4.258l16.857 26.244c3.008 4.684 1.978 11.152-2.301 14.445-2.126 1.636-4.654 2.179-7.029 1.739l5.395 8.398c3.009 4.684 8.917 5.812 13.196 2.519 4.28-3.293 5.31-9.76 2.301-14.445z"/>
    <path fill="#B7022D" d="M171.77 39.89L149.518 5.244c-1.047-1.63-2.445-2.828-4.004-3.561l20.475 31.876c3.009 4.684 1.978 11.151-2.301 14.444-2.79 2.148-6.272 2.415-9.192 1.043l1.777 2.767c3.009 4.684 8.917 5.812 13.196 2.519 4.28-3.292 5.31-9.76 2.301-14.444z"/>
    <path fill="#808285" d="M169.469 54.334c1.954-1.504 3.231-3.67 3.755-6.025l24.222 37.711h-15.247L163.02 56.163c2.202.257 4.495-.326 6.449-1.83z"/>
    <path fill="#58595B" d="M173.224 48.31a11.056 11.056 0 01-.563 1.795l16.443 25.599c1.077 1.677-.019 3.987-1.892 3.987h-9.079l4.064 6.328h15.248l-24.221-37.71z"/>
  </g>
  <g>
    <path fill="#808285" d="M222.869 86.02H11.131C4.438 86.02-.533 92.808.924 99.96l22.058 108.245c1.066 5.233 5.308 8.955 10.207 8.955h167.622c4.898 0 9.14-3.722 10.207-8.955L233.076 99.96c1.457-7.152-3.514-13.94-10.207-13.94zm-23.367 117.487H34.498L13.34 99.674h207.32l-21.158 103.833z"/>
    <path fill="#58595B" d="M34.504 203.507L13.34 99.674h207.32l.662-3.247c.322-1.58-.777-3.082-2.257-3.082H10.444c-1.48 0-2.58 1.502-2.258 3.084l21.422 105.098c.236 1.157 1.174 1.98 2.257 1.98h2.639z"/>
    <path fill="#58595B" d="M226.785 86.847c.766 2.063.994 4.403.509 6.783l-23.076 113.241c-.471 2.315-2.347 3.96-4.514 3.96H27.408c-1.376 0-2.7-.294-3.915-.832 1.572 4.269 5.38 7.16 9.696 7.16h167.622c4.899 0 9.14-3.722 10.207-8.956l22.058-108.245c1.153-5.66-1.722-11.093-6.291-13.111z"/>
    <path fill="#808285" d="M47.085 99.674h12.474v103.833H47.085V99.674z"/>
    <path fill="#58595B" d="M53.777 99.674v97.505h-6.692v6.328h12.474V99.674h-5.782z"/>
    <path fill="#808285" d="M89.537 99.674h12.473v103.833H89.537V99.674z"/>
    <path fill="#58595B" d="M96.23 99.674v97.505h-6.692v6.328h12.472V99.674h-5.78z"/>
    <path fill="#808285" d="M131.99 99.674h12.473v103.833H131.99V99.674z"/>
    <path fill="#58595B" d="M138.681 99.674v97.505h-6.691v6.328h12.472V99.674h-5.781z"/>
    <path fill="#808285" d="M174.441 99.674h12.474v103.833h-12.474V99.674z"/>
    <path fill="#58595B" d="M181.134 99.674v97.505h-6.693v6.328h12.474V99.674h-5.781z"/>
    <g>
      <path fill="#808285" d="M215.511 124.942H18.489l2.782 13.653h191.458l2.782-13.653z"/>
      <path fill="#58595B" d="M208.441 124.942l-1.493 7.325H19.981l1.29 6.328h191.458l2.782-13.653h-7.07z"/>
      <path fill="#808285" d="M207.433 164.584H26.566l2.783 13.653h175.302l2.782-13.653z"/>
      <path fill="#58595B" d="M200.362 164.584l-1.493 7.325H28.059l1.29 6.328h175.302l2.782-13.653h-7.071z"/>
    </g>
  </g>
  <g>
    <path fill="#FFA91A" d="M116.003 183.936c26.332 0 47.678-23.365 47.678-52.188 0-28.822-21.346-52.188-47.678-52.188-26.332 0-47.678 23.366-47.678 52.188 0 28.823 21.346 52.188 47.678 52.188z"/>
    <path fill="#F79219" d="M143.43 89.072c5.467 8.492 8.689 18.841 8.689 30.02 0 28.822-21.346 52.188-47.678 52.188-10.213 0-19.668-3.526-27.427-9.511 8.63 13.403 22.87 22.167 38.989 22.167 26.333 0 47.678-23.366 47.678-52.188 0-17.644-8.007-33.231-20.251-42.676z"/>
    <path fill="#fff" d="M121.106 161.274h-9.018c-7.491 0-13.586-6.671-13.586-14.87 0-1.397 1.036-2.531 2.313-2.531 1.276 0 2.312 1.134 2.312 2.531 0 5.408 4.021 9.808 8.961 9.808h9.018c4.94 0 8.96-4.4 8.96-9.808v-4.936c0-5.408-4.02-9.807-8.96-9.807h-9.018c-7.491 0-13.586-6.671-13.586-14.871s6.095-14.87 13.586-14.87h9.018c7.491 0 13.585 6.671 13.585 14.87 0 1.397-1.036 2.531-2.313 2.531-1.276 0-2.312-1.134-2.312-2.531 0-5.408-4.02-9.807-8.96-9.807h-9.018c-4.94 0-8.961 4.399-8.961 9.807s4.021 9.809 8.961 9.809h9.018c7.491 0 13.585 6.671 13.585 14.869v4.936c0 8.199-6.094 14.87-13.585 14.87z"/>
    <path fill="#fff" d="M116.596 166.21c-1.276 0-2.312-1.134-2.312-2.531V99.517c0-1.398 1.036-2.532 2.312-2.532 1.277 0 2.313 1.134 2.313 2.532v64.162c0 1.397-1.035 2.531-2.313 2.531z"/>
    <g>
      <path fill="#E63950" d="M71.706 228.247H160.3c2.554 0 4.625-2.267 4.625-5.062v-23.993c0-2.796-2.071-5.062-4.625-5.062H71.706c-2.554 0-4.625 2.266-4.625 5.062v23.993c0 2.795 2.071 5.062 4.625 5.062z"/>
    </g>
    <g>
      <path fill="#D10028" d="M160.299 194.13h-1.156v22.727c0 2.795-2.071 5.062-4.625 5.062H67.081v1.266c0 2.795 2.071 5.062 4.625 5.062H160.3c2.554 0 4.625-2.267 4.625-5.062v-23.993c-.001-2.796-2.071-5.062-4.626-5.062z"/>
    </g>
    <g>
      <path fill="#FFA91A" d="M154.815 210.583l-32.754-2.133c-2.951-.192-5.392 2.481-5.216 5.71l1.948 35.851c.252 4.649 5.403 6.79 8.411 3.497l6.202-6.789 12.713 13.916c2.672 2.924 7.005 2.924 9.675 0l8.727-9.552c2.672-2.925 2.672-7.667 0-10.591l-12.713-13.915 6.202-6.789c3.008-3.291 1.052-8.928-3.195-9.205z"/>
      <path fill="#F79219" d="M151.537 255.976l8.726-9.552c2.672-2.925 2.672-7.667 0-10.591l4.258 4.66c2.672 2.925 2.672 7.668 0 10.591l-8.727 9.552c-2.672 2.925-7.003 2.925-9.675 0l-4.257-4.66c2.672 2.925 7.003 2.925 9.675 0zM151.809 226.578l-4.257-4.66 6.202-6.789c1.185-1.297 1.599-2.958 1.407-4.511 4.006.55 5.775 5.969 2.85 9.172l-6.202 6.788zM122.947 248.849l6.202-6.789 4.257 4.66-6.202 6.789c-2.925 3.202-7.878 1.264-8.379-3.12 1.421.21 2.938-.243 4.122-1.54z"/>
    </g>
  </g>
  <path fill="#E7E7E7" d="M516.8 206.6c-6.933 0-13.2-1.533-18.8-4.6-5.533-3.067-9.9-7.3-13.1-12.7-3.133-5.467-4.7-11.567-4.7-18.3 0-6.733 1.567-12.8 4.7-18.2 3.2-5.467 7.6-9.733 13.2-12.8s11.867-4.6 18.8-4.6c5.2 0 10 .867 14.4 2.6s8.133 4.267 11.2 7.6l-4.7 4.7c-5.467-5.533-12.367-8.3-20.7-8.3-5.533 0-10.567 1.267-15.1 3.8-4.533 2.533-8.1 6-10.7 10.4-2.533 4.4-3.8 9.333-3.8 14.8 0 5.467 1.267 10.4 3.8 14.8 2.6 4.4 6.167 7.867 10.7 10.4 4.533 2.533 9.567 3.8 15.1 3.8 8.4 0 15.3-2.8 20.7-8.4l4.7 4.7c-3.067 3.333-6.833 5.9-11.3 7.7-4.4 1.733-9.2 2.6-14.4 2.6zm63.417 0c-5.666 0-10.833-1.233-15.5-3.7-4.6-2.533-8.233-6-10.9-10.4-2.6-4.4-3.9-9.333-3.9-14.8 0-5.4 1.3-10.3 3.9-14.7 2.667-4.4 6.3-7.867 10.9-10.4 4.667-2.533 9.834-3.8 15.5-3.8 5.734 0 10.9 1.267 15.5 3.8 4.6 2.467 8.2 5.933 10.8 10.4 2.667 4.4 4 9.3 4 14.7 0 5.467-1.333 10.4-4 14.8-2.6 4.4-6.2 7.867-10.8 10.4-4.6 2.467-9.766 3.7-15.5 3.7zm0-6.2c4.334 0 8.267-.967 11.8-2.9 3.534-2 6.3-4.7 8.3-8.1 2-3.467 3-7.333 3-11.6 0-4.333-1-8.2-3-11.6-2-3.467-4.766-6.167-8.3-8.1-3.533-2-7.466-3-11.8-3-4.333 0-8.266 1-11.8 3-3.533 1.933-6.3 4.633-8.3 8.1-2 3.4-3 7.267-3 11.6 0 4.267 1 8.133 3 11.6 2 3.4 4.767 6.1 8.3 8.1 3.534 1.933 7.467 2.9 11.8 2.9zm99.015 5.6v-43.5l-21.6 36.4h-3.3l-21.6-35.8V206h-6.9v-56.5h6.2l24 40.5 23.9-40.5h6.2l.1 56.5h-7zm50.045-56.5c7.334 0 13.1 1.733 17.3 5.2 4.2 3.4 6.3 8.167 6.3 14.3 0 6.133-2.133 10.933-6.4 14.4-4.2 3.4-9.933 5.1-17.2 5.1h-14.8V206h-7.2v-56.5h22zm-.4 33c5.4 0 9.534-1.167 12.4-3.5 2.934-2.333 4.4-5.667 4.4-10s-1.433-7.667-4.3-10c-2.866-2.333-7.033-3.5-12.5-3.5h-14.4v27h14.4zm78.819 23.5l-12.8-17.8c-1.733.133-3.033.2-3.9.2h-14.8V206h-7.2v-56.5h22c7.333 0 13.1 1.733 17.3 5.2 4.2 3.4 6.3 8.167 6.3 14.3 0 4.333-1.133 8.033-3.4 11.1-2.2 3.067-5.367 5.3-9.5 6.7l13.8 19.2h-7.8zm-17.1-23.5c5.4 0 9.533-1.167 12.4-3.5 2.933-2.333 4.4-5.667 4.4-10s-1.433-7.667-4.3-10-7.033-3.5-12.5-3.5h-14.4v27h14.4zm76.002 8.9h-31.7l-6.6 14.6h-7.2l26.1-56.5h7.1l26.1 56.5h-7.2l-6.6-14.6zm-2.6-5.8l-13.2-29.3-13.3 29.3h26.5zm42.766 21c-4.333 0-8.5-.633-12.5-1.9-3.933-1.333-7.033-3.067-9.3-5.2l3-5.6c2.133 1.933 4.9 3.533 8.3 4.8 3.467 1.2 7.033 1.8 10.7 1.8 4.933 0 8.567-.867 10.9-2.6 2.4-1.733 3.6-3.967 3.6-6.7 0-2.133-.667-3.833-2-5.1-1.333-1.333-3-2.333-5-3-2-.667-4.7-1.4-8.1-2.2-4.267-1-7.7-2-10.3-3a17.25 17.25 0 01-6.7-4.6c-1.8-2.133-2.7-4.967-2.7-8.5 0-4.733 1.9-8.567 5.7-11.5 3.8-3 9.1-4.5 15.9-4.5 3.4 0 6.7.433 9.9 1.3 3.267.867 6.033 2.1 8.3 3.7l-2.6 5.8c-4.333-3.067-9.6-4.6-15.8-4.6-4.733 0-8.3.9-10.7 2.7-2.4 1.733-3.6 4-3.6 6.8 0 2.133.667 3.867 2 5.2 1.333 1.267 3 2.233 5 2.9 2.067.667 4.833 1.4 8.3 2.2 4.2 1 7.6 2 10.2 3 2.6.933 4.8 2.433 6.6 4.5 1.867 2.067 2.8 4.833 2.8 8.3 0 4.8-1.933 8.667-5.8 11.6-3.8 2.933-9.167 4.4-16.1 4.4z"/>
  <path fill="#FF8A00" d="M286.895 207.24c-8.163 0-16.068-1.24-23.715-3.72-7.543-2.583-13.485-5.89-17.825-9.92l5.735-12.09c4.133 3.72 9.403 6.768 15.81 9.145 6.51 2.273 13.175 3.41 19.995 3.41 8.99 0 15.707-1.498 20.15-4.495 4.443-3.1 6.665-7.182 6.665-12.245 0-3.72-1.24-6.717-3.72-8.99-2.377-2.377-5.373-4.185-8.99-5.425-3.513-1.24-8.525-2.635-15.035-4.185-8.163-1.963-14.777-3.927-19.84-5.89-4.96-1.963-9.248-4.96-12.865-8.99-3.513-4.133-5.27-9.662-5.27-16.585 0-5.787 1.498-11.005 4.495-15.655 3.1-4.65 7.75-8.37 13.95-11.16 6.2-2.79 13.898-4.185 23.095-4.185 6.407 0 12.71.827 18.91 2.48 6.2 1.653 11.522 4.03 15.965 7.13l-5.115 12.4a54.256 54.256 0 00-14.57-6.51c-5.167-1.55-10.23-2.325-15.19-2.325-8.783 0-15.397 1.602-19.84 4.805-4.34 3.203-6.51 7.337-6.51 12.4 0 3.72 1.24 6.768 3.72 9.145 2.48 2.273 5.528 4.082 9.145 5.425 3.72 1.24 8.732 2.583 15.035 4.03 8.163 1.963 14.725 3.927 19.685 5.89 4.96 1.963 9.197 4.96 12.71 8.99 3.617 4.03 5.425 9.455 5.425 16.275 0 5.683-1.55 10.902-4.65 15.655-3.1 4.65-7.802 8.37-14.105 11.16-6.303 2.687-14.053 4.03-23.25 4.03zm64.65-109.74h15.5V206h-15.5V97.5zm79.603 109.74c-8.163 0-16.068-1.24-23.715-3.72-7.543-2.583-13.485-5.89-17.825-9.92l5.735-12.09c4.133 3.72 9.403 6.768 15.81 9.145 6.51 2.273 13.175 3.41 19.995 3.41 8.99 0 15.707-1.498 20.15-4.495 4.443-3.1 6.665-7.182 6.665-12.245 0-3.72-1.24-6.717-3.72-8.99-2.377-2.377-5.373-4.185-8.99-5.425-3.513-1.24-8.525-2.635-15.035-4.185-8.163-1.963-14.777-3.927-19.84-5.89-4.96-1.963-9.248-4.96-12.865-8.99-3.513-4.133-5.27-9.662-5.27-16.585 0-5.787 1.498-11.005 4.495-15.655 3.1-4.65 7.75-8.37 13.95-11.16 6.2-2.79 13.898-4.185 23.095-4.185 6.407 0 12.71.827 18.91 2.48 6.2 1.653 11.522 4.03 15.965 7.13l-5.115 12.4a54.256 54.256 0 00-14.57-6.51c-5.167-1.55-10.23-2.325-15.19-2.325-8.783 0-15.397 1.602-19.84 4.805-4.34 3.203-6.51 7.337-6.51 12.4 0 3.72 1.24 6.768 3.72 9.145 2.48 2.273 5.528 4.082 9.145 5.425 3.72 1.24 8.732 2.583 15.035 4.03 8.163 1.963 14.725 3.927 19.685 5.89 4.96 1.963 9.197 4.96 12.71 8.99 3.617 4.03 5.425 9.455 5.425 16.275 0 5.683-1.55 10.902-4.65 15.655-3.1 4.65-7.802 8.37-14.105 11.16-6.303 2.687-14.053 4.03-23.25 4.03z"/>
</svg>
