<svg id="Layer_1" enable-background="new 0 0 256 256" height="512" viewBox="0 0 256 256" width="512" xmlns="http://www.w3.org/2000/svg">
  <g>
    <g>
      <g>
        <g>
          <g>
            <g>
              <g>
                <path d="m82.621 84.807c-3.701-2.602-4.592-7.712-1.99-11.413l19.245-27.373c2.602-3.701 7.712-4.592 11.413-1.99 3.701 2.602 4.592 7.712 1.99 11.413l-19.245 27.374c-2.602 3.701-7.712 4.591-11.413 1.989z" fill="#e63950" />
              </g>
            </g>
            <g>
              <g>
                <path d="m85.54 78.84c-.42 0-.81-.12-1.15-.36-.9-.63-1.12-1.88-.49-2.78.61-.87 1.92-1.11 2.79-.49.44.31.73.77.82 1.29.09.53-.03 1.06-.33 1.49-.38.54-.99.85-1.64.85zm4.6-6.54c-.41 0-.81-.13-1.15-.36-.44-.31-.73-.77-.82-1.3-.09-.52.03-1.05.33-1.49l14.65-20.83c.61-.87 1.91-1.1 2.78-.48.44.3.73.76.82 1.29.1.52-.02 1.06-.33 1.49l-14.64 20.83c-.38.53-.99.85-1.64.85z" fill="#e8566f" />
              </g>
            </g>
            <g>
              <g>
                <path d="m111.289 44.032c-.628-.441-1.297-.782-1.986-1.026.85 2.413.56 5.187-1.024 7.439l-19.245 27.373c-2.161 3.073-6.05 4.208-9.427 3.016.547 1.552 1.565 2.955 3.014 3.974 3.701 2.602 8.811 1.711 11.413-1.99l19.245-27.373c2.602-3.701 1.711-8.811-1.99-11.413z" fill="#d10028" />
              </g>
            </g>
            <g>
              <g>
                <path d="m82.621 84.807c-1.69-1.188-2.794-2.899-3.247-4.76l-20.949 29.796h13.187l16.587-23.591c-1.905.203-3.888-.257-5.578-1.445z" fill="#808285" />
              </g>
            </g>
            <g>
              <g>
                <g>
                  <path d="m82.621 84.807c-.44-.309-.84-.654-1.199-1.028l-14.212 20.214c-.375.533-.985.85-1.636.85h-3.634l-3.515 5h13.187l16.587-23.591c-1.905.203-3.888-.257-5.578-1.445z" fill="#58595b" />
                </g>
              </g>
            </g>
          </g>
          <g>
            <g>
              <g>
                <path d="m173.379 84.807c3.701-2.602 4.592-7.712 1.99-11.413l-19.245-27.373c-2.602-3.701-7.712-4.592-11.413-1.99-3.701 2.602-4.592 7.712-1.99 11.413l19.245 27.373c2.602 3.702 7.712 4.592 11.413 1.99z" fill="#e63950" />
              </g>
            </g>
            <g>
              <g>
                <path d="m175.369 73.394-19.245-27.372c-1.309-1.862-3.254-3.011-5.334-3.364l14.579 20.736c2.602 3.701 1.711 8.811-1.99 11.413-1.839 1.293-4.025 1.722-6.079 1.374l4.666 6.636c2.602 3.701 7.712 4.592 11.413 1.99 3.701-2.602 4.592-7.712 1.99-11.413z" fill="#d10028" />
              </g>
            </g>
            <g>
              <g>
                <path d="m175.369 73.394-19.245-27.373c-.906-1.288-2.115-2.235-3.463-2.814l17.708 25.186c2.602 3.701 1.711 8.811-1.99 11.413-2.413 1.697-5.425 1.908-7.95.824l1.537 2.186c2.602 3.701 7.712 4.592 11.413 1.99 3.701-2.601 4.592-7.711 1.99-11.412z" fill="#b7022d" />
              </g>
            </g>
            <g>
              <g>
                <path d="m173.379 84.807c1.69-1.188 2.794-2.899 3.247-4.76l20.949 29.796h-13.187l-16.587-23.591c1.905.203 3.888-.257 5.578-1.445z" fill="#808285" />
              </g>
            </g>
            <g>
              <g>
                <path d="m176.626 80.047c-.118.486-.281.961-.487 1.419l14.221 20.226c.932 1.325-.016 3.15-1.636 3.15h-7.852l3.515 5h13.187z" fill="#58595b" />
              </g>
            </g>
          </g>
        </g>
        <g>
          <g>
            <g>
              <path d="m219.562 109.843h-183.124c-5.789 0-10.088 5.363-8.828 11.014l19.077 85.527c.922 4.135 4.591 7.076 8.828 7.076h144.97c4.236 0 7.905-2.941 8.828-7.076l19.077-85.527c1.26-5.651-3.039-11.014-8.828-11.014zm-20.209 92.829h-142.706l-18.299-82.041h179.304z" fill="#808285" />
            </g>
          </g>
          <g>
            <g>
              <g>
                <path d="m56.652 202.672-18.304-82.041h179.304l.572-2.565c.279-1.249-.672-2.435-1.952-2.435h-180.429c-1.28 0-2.231 1.186-1.952 2.436l18.527 83.041c.204.914 1.015 1.564 1.952 1.564z" fill="#58595b" />
              </g>
            </g>
            <g>
              <g>
                <path d="m222.949 110.496c.663 1.63.86 3.479.44 5.36l-19.957 89.474c-.408 1.829-2.03 3.129-3.904 3.129h-149.013c-1.19 0-2.335-.232-3.386-.657 1.36 3.373 4.653 5.657 8.386 5.657h144.97c4.237 0 7.905-2.941 8.828-7.076l19.077-85.527c.997-4.473-1.489-8.765-5.441-10.36z" fill="#58595b" />
              </g>
            </g>
          </g>
          <g>
            <g>
              <g>
                <path d="m67.533 120.631h10.788v82.041h-10.788z" fill="#808285" />
              </g>
            </g>
            <g>
              <g>
                <path d="m73.321 120.631v77.041h-5.788v5h10.788v-82.041z" fill="#58595b" />
              </g>
            </g>
            <g>
              <g>
                <path d="m104.248 120.631h10.788v82.041h-10.788z" fill="#808285" />
              </g>
            </g>
            <g>
              <g>
                <path d="m110.036 120.631v77.041h-5.787v5h10.787v-82.041z" fill="#58595b" />
              </g>
            </g>
            <g>
              <g>
                <path d="m140.964 120.631h10.788v82.041h-10.788z" fill="#808285" />
              </g>
            </g>
            <g>
              <g>
                <path d="m146.751 120.631v77.041h-5.787v5h10.787v-82.041z" fill="#58595b" />
              </g>
            </g>
            <g>
              <g>
                <path d="m177.679 120.631h10.788v82.041h-10.788z" fill="#808285" />
              </g>
            </g>
            <g>
              <g>
                <path d="m183.467 120.631v77.041h-5.788v5h10.788v-82.041z" fill="#58595b" />
              </g>
            </g>
          </g>
          <g>
            <g>
              <g>
                <path d="m213.199 140.596h-170.398l2.406 10.788h165.586z" fill="#808285" />
              </g>
            </g>
            <g>
              <g>
                <path d="m207.084 140.596-1.291 5.788h-161.701l1.115 5h165.586l2.406-10.788z" fill="#58595b" />
              </g>
            </g>
            <g>
              <g>
                <path d="m206.212 171.918h-156.425l2.407 10.788h151.612z" fill="#808285" />
              </g>
            </g>
            <g>
              <g>
                <path d="m200.097 171.918-1.291 5.788h-147.728l1.116 5h151.612l2.406-10.788z" fill="#58595b" />
              </g>
            </g>
          </g>
        </g>
      </g>
    </g>
    <g>
      <g>
        <g>
          <g>
            <g>
              <g>
                <circle cx="127.138" cy="145.974" fill="#ffa91a" r="41.235" />
              </g>
            </g>
          </g>
          <g>
            <g>
              <path d="m150.858 112.254c4.729 6.71 7.515 14.887 7.515 23.72 0 22.773-18.461 41.235-41.235 41.235-8.833 0-17.01-2.786-23.72-7.515 7.463 10.59 19.779 17.515 33.72 17.515 22.774 0 41.235-18.462 41.235-41.235 0-13.941-6.925-26.257-17.515-33.72z" fill="#f79219" />
            </g>
          </g>
          <g>
            <g>
              <g>
                <path d="m131.551 169.303h-7.799c-6.479 0-11.75-5.271-11.75-11.749 0-1.104.896-2 2-2s2 .896 2 2c0 4.273 3.477 7.749 7.75 7.749h7.799c4.273 0 7.749-3.476 7.749-7.749v-3.9c0-4.273-3.476-7.749-7.749-7.749h-7.799c-6.479 0-11.75-5.271-11.75-11.75s5.271-11.749 11.75-11.749h7.799c6.479 0 11.749 5.271 11.749 11.749 0 1.104-.896 2-2 2s-2-.896-2-2c0-4.273-3.476-7.749-7.749-7.749h-7.799c-4.273 0-7.75 3.476-7.75 7.749s3.477 7.75 7.75 7.75h7.799c6.479 0 11.749 5.271 11.749 11.749v3.9c0 6.478-5.27 11.749-11.749 11.749z" fill="#fff" />
              </g>
            </g>
            <g>
              <g>
                <path d="m127.651 173.203c-1.104 0-2-.896-2-2v-50.696c0-1.104.896-2 2-2s2 .896 2 2v50.696c0 1.104-.895 2-2 2z" fill="#fff" />
              </g>
            </g>
          </g>
        </g>
      </g>
      <g>
        <g>
          <g>
            <path d="m88.827 222.22h76.622c2.209 0 4-1.791 4-4v-18.957c0-2.209-1.791-4-4-4h-76.622c-2.209 0-4 1.791-4 4v18.957c0 2.209 1.791 4 4 4z" fill="#e63950" />
          </g>
        </g>
      </g>
      <g>
        <g>
          <path d="m165.448 195.263h-1v17.957c0 2.209-1.791 4-4 4h-75.621v1c0 2.209 1.791 4 4 4h76.622c2.209 0 4-1.791 4-4v-18.957c-.001-2.209-1.791-4-4.001-4z" fill="#d10028" />
        </g>
      </g>
      <g>
        <g>
          <g>
            <g>
              <path d="m160.705 208.263-28.328-1.685c-2.552-.152-4.663 1.96-4.511 4.511l1.685 28.327c.218 3.673 4.673 5.365 7.274 2.763l5.364-5.364 10.995 10.995c2.311 2.311 6.058 2.311 8.368 0l7.547-7.547c2.311-2.311 2.311-6.058 0-8.368l-10.995-10.995 5.364-5.364c2.602-2.6.91-7.054-2.763-7.273z" fill="#ffa91a" />
            </g>
          </g>
        </g>
        <g>
          <g>
            <g>
              <path d="m157.87 244.129 7.547-7.547c2.311-2.311 2.311-6.058 0-8.368l3.682 3.682c2.311 2.311 2.311 6.058 0 8.368l-7.547 7.547c-2.311 2.311-6.057 2.311-8.368 0l-3.682-3.682c2.311 2.311 6.057 2.311 8.368 0z" fill="#f79219" />
            </g>
          </g>
          <g>
            <g>
              <path d="m158.105 220.901-3.682-3.682 5.364-5.364c1.025-1.025 1.383-2.337 1.217-3.564 3.465.434 4.995 4.716 2.465 7.247z" fill="#f79219" />
            </g>
          </g>
          <g>
            <g>
              <path d="m133.143 238.498 5.364-5.364 3.682 3.682-5.364 5.364c-2.53 2.53-6.813.999-7.247-2.465 1.229.166 2.541-.192 3.565-1.217z" fill="#f79219" />
            </g>
          </g>
        </g>
      </g>
    </g>
  </g>
</svg>